<svg xmlns="http://www.w3.org/2000/svg" viewBox="0 0 128 128" width="128" height="128">
  <defs>
    <linearGradient id="folderGrad" x1="0%" y1="0%" x2="100%" y2="100%">
      <stop offset="0%" style="stop-color:#4FC3F7;stop-opacity:1" />
      <stop offset="50%" style="stop-color:#29B6F6;stop-opacity:1" />
      <stop offset="100%" style="stop-color:#0288D1;stop-opacity:1" />
    </linearGradient>
    <linearGradient id="folderTabGrad" x1="0%" y1="0%" x2="100%" y2="100%">
      <stop offset="0%" style="stop-color:#81D4FA;stop-opacity:1" />
      <stop offset="100%" style="stop-color:#4FC3F7;stop-opacity:1" />
    </linearGradient>
    <linearGradient id="folderFrontGrad" x1="0%" y1="0%" x2="0%" y2="100%">
      <stop offset="0%" style="stop-color:#29B6F6;stop-opacity:1" />
      <stop offset="100%" style="stop-color:#0277BD;stop-opacity:1" />
    </linearGradient>
    <filter id="shadow" x="-20%" y="-20%" width="140%" height="140%">
      <feDropShadow dx="0" dy="4" stdDeviation="6" flood-color="#000" flood-opacity="0.25"/>
    </filter>
  </defs>
  
  <!-- Back panel -->
  <rect x="16" y="28" width="96" height="72" rx="8" ry="8" fill="url(#folderGrad)" filter="url(#shadow)"/>
  
  <!-- Tab -->
  <path d="M16 36 L16 28 Q16 24 20 24 L48 24 Q52 24 54 28 L58 36 Z" fill="url(#folderTabGrad)"/>
  
  <!-- Front panel with 3D effect -->
  <rect x="16" y="40" width="96" height="60" rx="6" ry="6" fill="url(#folderFrontGrad)"/>
  
  <!-- Highlight line -->
  <rect x="20" y="44" width="88" height="3" rx="1.5" fill="rgba(255,255,255,0.4)"/>
  
  <!-- Subtle lines for depth -->
  <rect x="20" y="52" width="60" height="2" rx="1" fill="rgba(255,255,255,0.15)"/>
  <rect x="20" y="58" width="40" height="2" rx="1" fill="rgba(255,255,255,0.1)"/>
</svg>
